# xmcd CD database file
#
# Track frame offsets:
#	150
#	20477
#	46260
#	64617
#	88252
#	120220
#	135950
#	163237
#	187782
#	205135
#	222892
#
# Disc length: 3225 seconds
#
# Revision: 1
# Processed by: cddbd v1.5.2PL0 Copyright (c) Steve Scherf et al.
# Submitted via: CDex 1.70beta2
#
DISCID=8c0c970b
DTITLE=Buddy Defranco Quintet - Chip Off The Old Bop
DYEAR=1992
DGENRE=Jazz
TTITLE0=Groove Yard
TTITLE1=Danca Del Sol
TTITLE2=If You Could See Me Now
TTITLE3=Chip Off The old Bop
TTITLE4=You're Blasé
TTITLE5=Dancing In The Dark
TTITLE6=Makin' Whoopee
TTITLE7=Moon Song
TTITLE8=Out To Lunch
TTITLE9=Almost
TTITLE10=Hashimoto's Blues
EXTD=YEAR: 1992
EXTT0=
EXTT1=
EXTT2=
EXTT3=
EXTT4=
EXTT5=
EXTT6=
EXTT7=
EXTT8=
EXTT9=
EXTT10=
PLAYORDER=
